<svg width="1130" height="628" viewBox="0 0 1130 628" fill="none" xmlns="http://www.w3.org/2000/svg">
<path d="M27.5527 303.496V275.103H225.793V303.496H142.677V539.423H110.669V303.496H27.5527ZM275.192 275.103H313.395L403.222 494.509H406.32L496.147 275.103H534.35V539.423H504.407V338.601H501.826L419.226 539.423H390.316L307.716 338.601H305.135V539.423H275.192V275.103Z" fill="#333333"/>
<path d="M874.205 275.103H906.212V450.112C906.212 468.181 901.953 484.313 893.435 498.51C885.003 512.621 873.086 523.764 857.685 531.938C842.283 540.026 824.214 544.069 803.478 544.069C782.742 544.069 764.673 540.026 749.272 531.938C733.87 523.764 721.911 512.621 713.392 498.51C704.96 484.313 700.744 468.181 700.744 450.112V275.103H732.752V447.53C732.752 460.437 735.591 471.923 741.27 481.99C746.949 491.971 755.037 499.844 765.534 505.609C776.117 511.288 788.765 514.127 803.478 514.127C818.192 514.127 830.84 511.288 841.423 505.609C852.006 499.844 860.094 491.971 865.687 481.99C871.365 471.923 874.205 460.437 874.205 447.53V275.103ZM1002.14 275.103V539.423H970.131V275.103H1002.14Z" fill="#34D399"/>
<path d="M607.082 187.424C559.049 297.213 598.077 291.959 655.129 253.378C703.927 220.379 708.442 162.447 682.234 119.209C649.476 129.703 622.992 151.059 607.082 187.424Z" fill="#333333"/>
<path d="M607.086 66.2766V66.2766C698.491 85.8635 732.565 201.012 655.129 253.378C598.077 291.959 559.049 297.213 607.082 187.424C713.086 -54.8703 1288.54 369.144 1061.39 232.854" stroke="#333333" stroke-width="30.2867"/>
<path d="M10 157.137C164.522 32.2657 324.578 -21.7404 524.875 43.2186" stroke="#34D399" stroke-width="30.2867"/>
</svg>
